<svg width="109" height="24" viewBox="0 0 109 24"
     xmlns="http://www.w3.org/2000/svg" fill="white">
    <g style="mix-blend-mode:difference">
        <path
                d="M-0.0079999 23V6.2H4.744V18.896H12.064V23H-0.0079999ZM21.562 23.144C20.138 23.144 18.866 22.864 17.746 22.304C16.642 21.728 15.77 20.944 15.13 19.952C14.506 18.96 14.194 17.824 14.194 16.544V6.2H18.994V16.328C18.994 16.856 19.106 17.328 19.33 17.744C19.554 18.144 19.858 18.464 20.242 18.704C20.642 18.928 21.082 19.04 21.562 19.04C22.09 19.04 22.554 18.928 22.954 18.704C23.354 18.464 23.674 18.144 23.914 17.744C24.154 17.328 24.274 16.856 24.274 16.328V6.2H28.93V16.544C28.93 17.824 28.61 18.96 27.97 19.952C27.346 20.944 26.482 21.728 25.378 22.304C24.274 22.864 23.002 23.144 21.562 23.144ZM24.658 4.952C23.938 4.952 23.378 4.76 22.978 4.376C22.594 3.976 22.402 3.416 22.402 2.696C22.402 2.056 22.602 1.52 23.002 1.088C23.402 0.655999 23.954 0.439999 24.658 0.439999C25.394 0.439999 25.954 0.639999 26.338 1.04C26.738 1.424 26.938 1.976 26.938 2.696C26.938 3.352 26.738 3.896 26.338 4.328C25.938 4.744 25.378 4.952 24.658 4.952ZM18.418 4.952C17.698 4.952 17.138 4.76 16.738 4.376C16.354 3.976 16.162 3.416 16.162 2.696C16.162 2.056 16.362 1.52 16.762 1.088C17.162 0.655999 17.714 0.439999 18.418 0.439999C19.154 0.439999 19.714 0.639999 20.098 1.04C20.498 1.424 20.698 1.976 20.698 2.696C20.698 3.352 20.498 3.896 20.098 4.328C19.698 4.744 19.138 4.952 18.418 4.952ZM41.0076 23V6.2H48.4476C49.5516 6.2 50.5356 6.448 51.3996 6.944C52.2796 7.424 52.9676 8.088 53.4636 8.936C53.9756 9.784 54.2316 10.76 54.2316 11.864C54.2316 13 53.9756 14.016 53.4636 14.912C52.9676 15.792 52.2796 16.488 51.3996 17C50.5356 17.512 49.5516 17.768 48.4476 17.768H45.7596V23H41.0076ZM45.6876 13.664H47.6316C47.9676 13.664 48.2636 13.6 48.5196 13.472C48.7756 13.328 48.9756 13.128 49.1196 12.872C49.2796 12.616 49.3596 12.304 49.3596 11.936C49.3596 11.568 49.2796 11.264 49.1196 11.024C48.9756 10.784 48.7756 10.608 48.5196 10.496C48.2636 10.368 47.9676 10.304 47.6316 10.304H45.6876V13.664ZM57.2029 23V6.2H69.4189V10.112H61.7629V19.088H69.7789V23H57.2029ZM59.4589 16.328V12.632H68.4589V16.328H59.4589ZM73.0233 23V6.2H77.2713L85.4313 17.384L84.4473 17.144C84.3673 16.552 84.2953 16.016 84.2313 15.536C84.1833 15.056 84.1353 14.6 84.0873 14.168C84.0553 13.736 84.0233 13.304 83.9913 12.872C83.9753 12.44 83.9673 11.968 83.9673 11.456C83.9673 10.944 83.9673 10.368 83.9673 9.728V6.2H88.5513V23H84.2552L75.4713 11L77.1273 11.408C77.2073 12.064 77.2713 12.632 77.3193 13.112C77.3833 13.592 77.4313 14.024 77.4633 14.408C77.4953 14.792 77.5193 15.16 77.5353 15.512C77.5673 15.864 77.5833 16.24 77.5833 16.64C77.5993 17.04 77.6073 17.496 77.6073 18.008V23H73.0233ZM100.467 23.24C99.0747 23.24 97.8267 23.024 96.7227 22.592C95.6187 22.16 94.6747 21.552 93.8907 20.768C93.1227 19.984 92.5387 19.056 92.1387 17.984C91.7387 16.912 91.5387 15.752 91.5387 14.504C91.5387 13.24 91.7547 12.08 92.1867 11.024C92.6347 9.952 93.2747 9.024 94.1067 8.24C94.9387 7.456 95.9147 6.848 97.0347 6.416C98.1707 5.984 99.4267 5.768 100.803 5.768C101.747 5.768 102.635 5.888 103.467 6.128C104.315 6.368 105.075 6.696 105.747 7.112C106.419 7.528 106.995 7.992 107.475 8.504L104.643 11.528C104.291 11.192 103.915 10.904 103.515 10.664C103.131 10.424 102.707 10.232 102.243 10.088C101.795 9.944 101.291 9.872 100.731 9.872C100.107 9.872 99.5307 9.992 99.0027 10.232C98.4907 10.456 98.0427 10.776 97.6587 11.192C97.2747 11.592 96.9707 12.08 96.7467 12.656C96.5387 13.216 96.4347 13.832 96.4347 14.504C96.4347 15.16 96.5467 15.776 96.7707 16.352C96.9947 16.912 97.3067 17.4 97.7067 17.816C98.1067 18.232 98.5787 18.56 99.1227 18.8C99.6827 19.024 100.283 19.136 100.923 19.136C101.371 19.136 101.787 19.064 102.171 18.92C102.555 18.776 102.883 18.584 103.155 18.344C103.443 18.088 103.667 17.792 103.827 17.456C103.987 17.104 104.067 16.728 104.067 16.328V15.656L104.691 16.664H100.275V13.208H108.387C108.403 13.384 108.419 13.656 108.435 14.024C108.467 14.376 108.483 14.728 108.483 15.08C108.499 15.432 108.507 15.68 108.507 15.824C108.507 16.896 108.307 17.888 107.907 18.8C107.507 19.712 106.947 20.496 106.227 21.152C105.507 21.808 104.659 22.32 103.683 22.688C102.707 23.056 101.635 23.24 100.467 23.24Z"
        />
    </g>
</svg>
