<svg width="24" height="24" viewBox="0 0 24 24" fill="none" xmlns="http://www.w3.org/2000/svg">
<path d="M18.7798 11.4395C18.7797 7.38576 15.4937 4.09961 11.4399 4.09961C7.3863 4.09969 4.10018 7.38581 4.1001 11.4395C4.1001 15.4932 7.38624 18.7792 11.4399 18.7793C15.4937 18.7793 18.7798 15.4932 18.7798 11.4395ZM19.7798 11.4395C19.7798 13.5884 18.9663 15.5467 17.6313 17.0254L20.7476 20.04C20.946 20.232 20.9513 20.5486 20.7593 20.7471C20.5673 20.9455 20.2507 20.9508 20.0522 20.7588L16.9165 17.7256C15.4511 19.0033 13.5369 19.7793 11.4399 19.7793C6.83396 19.7792 3.1001 16.0455 3.1001 11.4395C3.10018 6.83352 6.83401 3.09969 11.4399 3.09961C16.0459 3.09961 19.7797 6.83347 19.7798 11.4395Z" fill="black"/>
</svg>
