<svg width="48" height="48" viewBox="0 0 48 48" fill="none" xmlns="http://www.w3.org/2000/svg">
<g style="mix-blend-mode:difference">
<path fill-rule="evenodd" clip-rule="evenodd"
      d="M28.4184 35.9901C29.7649 36.6634 31.2942 37 33.0062 37C34.7375 37 36.2667 36.6634 37.594 35.9901C38.9213 35.2976 39.9601 34.355 40.7103 33.1624C41.4797 31.9698 41.8644 30.604 41.8644 29.0651V16.629H36.2667V28.8054C36.2667 29.4402 36.1225 30.0077 35.8339 30.5078C35.5454 30.9887 35.1607 31.3734 34.6798 31.662C34.1989 31.9313 33.641 32.0659 33.0062 32.0659C32.4291 32.0659 31.9001 31.9313 31.4192 31.662C30.9576 31.3734 30.5921 30.9887 30.3228 30.5078C30.0535 30.0077 29.9188 29.4402 29.9188 28.8054V16.629H24.148V29.0651C24.148 30.604 24.5231 31.9698 25.2733 33.1624C26.0428 34.355 27.0911 35.2976 28.4184 35.9901ZM34.7086 14.4361C35.1895 14.8977 35.8628 15.1286 36.7284 15.1286C37.594 15.1286 38.2673 14.8785 38.7482 14.3784C39.2291 13.859 39.4695 13.205 39.4695 12.4163C39.4695 11.5507 39.2291 10.887 38.7482 10.4254C38.2865 9.94445 37.6133 9.704 36.7284 9.704C35.882 9.704 35.2184 9.96369 34.7375 10.4831C34.2566 11.0024 34.0161 11.6468 34.0161 12.4163C34.0161 13.2819 34.2469 13.9552 34.7086 14.4361ZM27.2065 14.4361C27.6874 14.8977 28.3607 15.1286 29.2263 15.1286C30.0919 15.1286 30.7652 14.8785 31.2461 14.3784C31.727 13.859 31.9675 13.205 31.9675 12.4163C31.9675 11.5507 31.727 10.887 31.2461 10.4254C30.7844 9.94445 30.1112 9.704 29.2263 9.704C28.3799 9.704 27.7163 9.96369 27.2354 10.4831C26.7545 11.0024 26.514 11.6468 26.514 12.4163C26.514 13.2819 26.7449 13.9552 27.2065 14.4361ZM7.07357 16.629V36.8269H21.5872V31.8928H12.7867V16.629H7.07357Z" fill="black"/>
</g>
</svg>
